name Run_500 03_newCOP3_v24.mot
datacolumns 19
datarows 159
range 3.973 4.131
DataType=double
version=3
OpenSimVersion=4.3-2021-08-27-4bc7ad9
endheader
time	R_ground_force_vx	R_ground_force_vy	R_ground_force_vz	R_ground_force_px	R_ground_force_py	R_ground_force_pz	L_ground_force_vx	L_ground_force_vy	L_ground_force_vz	L_ground_force_px	L_ground_force_py	L_ground_force_pz	R_ground_torque_x	R_ground_torque_y	R_ground_torque_z	L_ground_torque_x	L_ground_torque_y	L_ground_torque_z
3.973	0	0	0	0	0	0	132.448425	212.550858	-10.922223	0.318308	0	-0.418776	0	0	0	-0	8.196463	-0
3.974	0	0	0	0	0	0	123.210556	196.200058	-11.306327	0.320253	0	-0.418998	0	0	0	-0	8.125629999999999	-0
3.975	0	0	0	0	0	0	114.256187	180.683151	-11.650466	0.322372	0	-0.419339	0	0	0	-0	8.038337	-0
3.976	0	0	0	0	0	0	105.622543	165.980438	-11.951161	0.324543	0	-0.419815	0	0	0	-0	7.935308	-0
3.977	0	0	0	0	0	0	97.34226200000001	152.074249	-12.204811	0.326632	0	-0.420441	0	0	0	-0	7.817304	-0
3.978	0	0	0	0	0	0	89.442795	138.949265	-12.40786	0.328501	0	-0.421228	0	0	0	-0	7.685109	-0
3.979	0	0	0	0	0	0	81.945938	126.592667	-12.556953	0.330014	0	-0.422183	0	0	0	-0	7.539533	-0
3.98	0	0	0	0	0	0	74.867592	114.994003	-12.649089	0.331043	0	-0.423303	0	0	0	-0	7.381408	-0
3.981	0	0	0	0	0	0	68.217628	104.144768	-12.681742	0.331483	0	-0.424574	0	0	0	-0	7.211583	-0
3.982	0	0	0	0	0	0	61.999996	94.03774300000001	-12.652981	0.331267	0	-0.425965	0	0	0	-0	7.030922	-0
3.983	0	0	0	0	0	0	56.212952	84.666229	-12.561556	0.330378	0	-0.427426	0	0	0	-0	6.840302	-0
3.984	0	0	0	0	0	0	50.849533	76.023033	-12.406978	0.328871	0	-0.428877	0	0	0	-0	6.640607	-0
3.985	0	0	0	0	0	0	45.898071	68.099411	-12.189557	0.326897	0	-0.430206	0	0	0	-0	6.432728	-0
3.986	0	0	0	0	0	0	41.342884	60.884079	-11.910439	0.324728	0	-0.431262	0	0	0	-0	6.217556	-0
3.987	0	0	0	0	0	0	37.165016	54.362194	-11.571604	0.322779	0	-0.431844	0	0	0	-0	5.995985	-0
3.988	0	0	0	0	0	0	33.342995	48.514576	-11.175861	0.321633	0	-0.431704	0	0	0	-0	5.768901	-0
3.989	0	0	0	0	0	0	29.853617	43.31707	-10.72681	0.322042	0	-0.430547	0	0	0	-0	5.537185	-0
3.99	0	0	0	0	0	0	26.672686	38.740223	-10.228792	0.324919	0	-0.428041	0	0	0	-0	5.301708	-0
3.991	0	0	0	0	0	0	23.775661	34.749184	-9.686832000000001	0.331288	0	-0.423843	0	0	0	-0	5.063327	-0
3.992	0	0	0	0	0	0	21.138248	31.303959	-9.106558	0.342196	0	-0.417632	0	0	0	-0	4.822884	-0
3.993	0	0	0	0	0	0	18.736866	28.359913	-8.494116	0.358584	0	-0.409161	0	0	0	-0	4.581201	-0
3.994	0	0	0	0	0	0	16.549006	25.86857	-7.856073	0.381133	0	-0.3983	0	0	0	-0	4.33908	-0
3.995	0	0	0	0	0	0	14.553476	23.778616	-7.199322	0.410121	0	-0.385087	0	0	0	-0	4.097298	-0
3.996	0	0	0	0	0	0	12.730556	22.037077	-6.530966	0.445329	0	-0.369735	0	0	0	-0	3.856603	-0
3.997	0	0	0	0	0	0	11.062058	20.590595	-5.858219	0.486029	0	-0.352623	0	0	0	-0	3.617716	-0
3.998	0	0	0	0	0	0	9.531324	19.386749	-5.188286	0.531088	0	-0.334244	0	0	0	-0	3.381326	-0
3.999	0	0	0	0	0	0	8.123189	18.375303	-4.528261	0.579129	0	-0.315136	0	0	0	-0	3.148087	-0
4	0	0	0	0	0	0	6.823929	17.509377	-3.885013	0.62874	0	-0.295808	0	0	0	-0	2.918619	-0
4.001	0	0	0	0	0	0	5.621207	16.746424	-3.265085	0.678656	0	-0.276682	0	0	0	-0	2.693503	-0
4.002	0	0	0	0	0	0	4.504046	16.049009	-2.674591	0.727881	0	-0.258061	0	0	0	-0	2.473281	-0
4.003	0	0	0	0	0	0	3.462833	15.385331	-2.119126	0.775753	0	-0.24012	0	0	0	-0	2.258455	-0
4.004	0	0	0	0	0	0	2.489353	14.72949	-1.603678	0.821941	0	-0.222915	0	0	0	-0	2.049487	-0
4.005	0	0	0	0	0	0	1.576861	14.06151	-1.132551	0.866412	0	-0.206402	0	0	0	-0	1.846794	-0
4.006	0	0	0	0	0	0	0.720164	13.367126	-0.709302	0.909379	0	-0.190461	0	0	0	-0	1.650751	-0
4.007	0	0	0	0	0	0	-0.084288	12.637383	-0.336689	0.951251	0	-0.174916	0	0	0	-0	1.461693	-0
4.008	0	0	0	0	0	0	-0.83833	11.868082	-0.016629	0.992591	0	-0.159541	0	0	0	-0	1.279906	-0
4.009	0	0	0	0	0	0	-1.542056	11.059138	0.249827	1.034092	0	-0.14407	0	0	0	-0	1.105638	-0
4.01	0	0	0	0	0	0	-2.193842	10.213891	0.462498	1.076571	0	-0.12819	0	0	0	-0	0.939092	-0
4.011	0	0	0	0	0	0	0	0	0	0	0	0	0	0	0	0	0	0
4.012	0	0	0	0	0	0	0	0	0	0	0	0	0	0	0	0	0	0
4.013	0	0	0	0	0	0	0	0	0	0	0	0	0	0	0	0	0	0
4.014	0	0	0	0	0	0	0	0	0	0	0	0	0	0	0	0	0	0
4.015	0	0	0	0	0	0	0	0	0	0	0	0	0	0	0	0	0	0
4.016	0	0	0	0	0	0	0	0	0	0	0	0	0	0	0	0	0	0
4.017	0	0	0	0	0	0	0	0	0	0	0	0	0	0	0	0	0	0
4.018	0	0	0	0	0	0	0	0	0	0	0	0	0	0	0	0	0	0
4.019	0	0	0	0	0	0	0	0	0	0	0	0	0	0	0	0	0	0
4.02	0	0	0	0	0	0	0	0	0	0	0	0	0	0	0	0	0	0
4.021	0	0	0	0	0	0	0	0	0	0	0	0	0	0	0	0	0	0
4.022	0	0	0	0	0	0	0	0	0	0	0	0	0	0	0	0	0	0
4.023	0	0	0	0	0	0	0	0	0	0	0	0	0	0	0	0	0	0
4.024	0	0	0	0	0	0	0	0	0	0	0	0	0	0	0	0	0	0
4.025	0	0	0	0	0	0	0	0	0	0	0	0	0	0	0	0	0	0
4.026	0	0	0	0	0	0	0	0	0	0	0	0	0	0	0	0	0	0
4.027	0	0	0	0	0	0	0	0	0	0	0	0	0	0	0	0	0	0
4.028	0	0	0	0	0	0	0	0	0	0	0	0	0	0	0	0	0	0
4.029	0	0	0	0	0	0	0	0	0	0	0	0	0	0	0	0	0	0
4.03	0	0	0	0	0	0	0	0	0	0	0	0	0	0	0	0	0	0
4.031	0	0	0	0	0	0	0	0	0	0	0	0	0	0	0	0	0	0
4.032	0	0	0	0	0	0	0	0	0	0	0	0	0	0	0	0	0	0
4.033	0	0	0	0	0	0	0	0	0	0	0	0	0	0	0	0	0	0
4.034	0	0	0	0	0	0	0	0	0	0	0	0	0	0	0	0	0	0
4.035	0	0	0	0	0	0	0	0	0	0	0	0	0	0	0	0	0	0
4.036	0	0	0	0	0	0	0	0	0	0	0	0	0	0	0	0	0	0
4.037	0	0	0	0	0	0	0	0	0	0	0	0	0	0	0	0	0	0
4.038	0	0	0	0	0	0	0	0	0	0	0	0	0	0	0	0	0	0
4.039	0	0	0	0	0	0	0	0	0	0	0	0	0	0	0	0	0	0
4.04	0	0	0	0	0	0	0	0	0	0	0	0	0	0	0	0	0	0
4.041	0	0	0	0	0	0	0	0	0	0	0	0	0	0	0	0	0	0
4.042	0	0	0	0	0	0	0	0	0	0	0	0	0	0	0	0	0	0
4.043	0	0	0	0	0	0	0	0	0	0	0	0	0	0	0	0	0	0
4.044	0	0	0	0	0	0	0	0	0	0	0	0	0	0	0	0	0	0
4.045	0	0	0	0	0	0	0	0	0	0	0	0	0	0	0	0	0	0
4.046	0	0	0	0	0	0	0	0	0	0	0	0	0	0	0	0	0	0
4.047	0	0	0	0	0	0	0	0	0	0	0	0	0	0	0	0	0	0
4.048	0	0	0	0	0	0	0	0	0	0	0	0	0	0	0	0	0	0
4.049	0	0	0	0	0	0	0	0	0	0	0	0	0	0	0	0	0	0
4.05	0	0	0	0	0	0	0	0	0	0	0	0	0	0	0	0	0	0
4.051	0	0	0	0	0	0	0	0	0	0	0	0	0	0	0	0	0	0
4.052	0	0	0	0	0	0	0	0	0	0	0	0	0	0	0	0	0	0
4.053	0	0	0	0	0	0	0	0	0	0	0	0	0	0	0	0	0	0
4.054	0	0	0	0	0	0	0	0	0	0	0	0	0	0	0	0	0	0
4.055	0	0	0	0	0	0	0	0	0	0	0	0	0	0	0	0	0	0
4.056	0	0	0	0	0	0	0	0	0	0	0	0	0	0	0	0	0	0
4.057	0	0	0	0	0	0	0	0	0	0	0	0	0	0	0	0	0	0
4.058	0	0	0	0	0	0	0	0	0	0	0	0	0	0	0	0	0	0
4.059	0	0	0	0	0	0	0	0	0	0	0	0	0	0	0	0	0	0
4.06	0	0	0	0	0	0	0	0	0	0	0	0	0	0	0	0	0	0
4.061	0	0	0	0	0	0	0	0	0	0	0	0	0	0	0	0	0	0
4.062	0	0	0	0	0	0	0	0	0	0	0	0	0	0	0	0	0	0
4.063	0	0	0	0	0	0	0	0	0	0	0	0	0	0	0	0	0	0
4.064	0	0	0	0	0	0	0	0	0	0	0	0	0	0	0	0	0	0
4.065	0	0	0	0	0	0	0	0	0	0	0	0	0	0	0	0	0	0
4.066	0	0	0	0	0	0	0	0	0	0	0	0	0	0	0	0	0	0
4.067	0	0	0	0	0	0	0	0	0	0	0	0	0	0	0	0	0	0
4.068	0	0	0	0	0	0	0	0	0	0	0	0	0	0	0	0	0	0
4.069	0	0	0	0	0	0	0	0	0	0	0	0	0	0	0	0	0	0
4.07	0	0	0	0	0	0	0	0	0	0	0	0	0	0	0	0	0	0
4.071	0	0	0	0	0	0	0	0	0	0	0	0	0	0	0	0	0	0
4.072	0	0	0	0	0	0	0	0	0	0	0	0	0	0	0	0	0	0
4.073	0	0	0	0	0	0	0	0	0	0	0	0	0	0	0	0	0	0
4.074	0	0	0	0	0	0	0	0	0	0	0	0	0	0	0	0	0	0
4.075	0	0	0	0	0	0	0	0	0	0	0	0	0	0	0	0	0	0
4.076	0	0	0	0	0	0	0	0	0	0	0	0	0	0	0	0	0	0
4.077	0	0	0	0	0	0	0	0	0	0	0	0	0	0	0	0	0	0
4.078	0	0	0	0	0	0	0	0	0	0	0	0	0	0	0	0	0	0
4.079	0	0	0	0	0	0	0	0	0	0	0	0	0	0	0	0	0	0
4.08	0	0	0	0	0	0	0	0	0	0	0	0	0	0	0	0	0	0
4.081	0	0	0	0	0	0	0	0	0	0	0	0	0	0	0	0	0	0
4.082	0	0	0	0	0	0	0	0	0	0	0	0	0	0	0	0	0	0
4.083	0	0	0	0	0	0	0	0	0	0	0	0	0	0	0	0	0	0
4.084	-2.247219	10.221189	-3.37885	0.72544	0	-0.145764	0	0	0	0	0	0	-0	2.011854	-0	0	0	0
4.085	-2.840949	11.546439	-3.747428	0.75159	0	-0.155975	0	0	0	0	0	0	-0	2.120563	-0	0	0	0
4.086	-3.556427	13.094676	-4.161623	0.7760550000000001	0	-0.166009	0	0	0	0	0	0	-0	2.230449	-0	0	0	0
4.087	-4.399125	14.905383	-4.62496	0.798322	0	-0.17575	0	0	0	0	0	0	-0	2.34128	-0	0	0	0
4.088	-5.375388	17.023954	-5.140565	0.818112	0	-0.185078	0	0	0	0	0	0	-0	2.452797	-0	0	0	0
4.089	-6.492725	19.502073	-5.711107	0.835335	0	-0.193885	0	0	0	0	0	0	-0	2.564724	-0	0	0	0
4.09	-7.76006	22.398046	-6.338741	0.850055	0	-0.202084	0	0	0	0	0	0	-0	2.676762	-0	0	0	0
4.091	-9.187934	25.777073	-7.02506	0.862442	0	-0.209612	0	0	0	0	0	0	-0	2.788591	-0	0	0	0
4.092	-10.788629	29.711443	-7.771055	0.872737	0	-0.216434	0	0	0	0	0	0	-0	2.899871	-0	0	0	0
4.093	-12.576204	34.280624	-8.577083	0.881213	0	-0.222541	0	0	0	0	0	0	-0	3.010246	-0	0	0	0
4.094	-14.566429	39.571217	-9.442837000000001	0.88815	0	-0.227948	0	0	0	0	0	0	-0	3.119341	-0	0	0	0
4.095	-16.776604	45.676777	-10.367331	0.893817	0	-0.232686	0	0	0	0	0	0	-0	3.226767	-0	0	0	0
4.096	-19.225264	52.697418	-11.348882	0.898454	0	-0.2368	0	0	0	0	0	0	-0	3.332122	-0	0	0	0
4.097	-21.931763	60.739223	-12.385103	0.90227	0	-0.240346	0	0	0	0	0	0	-0	3.434992	-0	0	0	0
4.098	-24.915751	69.913414	-13.472899	0.90544	0	-0.243381	0	0	0	0	0	0	-0	3.534957	-0	0	0	0
4.099	-28.196533	80.335258	-14.608466	0.908106	0	-0.245965	0	0	0	0	0	0	-0	3.631587	-0	0	0	0
4.1	-31.792349	92.12267300000001	-15.787297	0.910376	0	-0.248157	0	0	0	0	0	0	-0	3.724451	-0	0	0	0
4.101	-35.71957	105.394592	-17.004192	0.912336	0	-0.250012	0	0	0	0	0	0	-0	3.813118	-0	0	0	0
4.102	-39.991848	120.268936	-18.253263	0.9140470000000001	0	-0.251582	0	0	0	0	0	0	-0	3.89716	-0	0	0	0
4.103	-44.619217	136.860413	-19.527958	0.915553	0	-0.252913	0	0	0	0	0	0	-0	3.976153	-0	0	0	0
4.104	-49.607235	155.277954	-20.82107	0.916884	0	-0.254045	0	0	0	0	0	0	-0	4.049684	-0	0	0	0
4.105	-54.956112	175.621902	-22.124765	0.91806	0	-0.255016	0	0	0	0	0	0	-0	4.117352	-0	0	0	0
4.106	-60.659943	197.98114	-23.430613	0.91909	0	-0.255857	0	0	0	0	0	0	-0	4.178774	-0	0	0	0
4.107	-66.70600899999999	222.429932	-24.72961	0.91998	0	-0.256595	0	0	0	0	0	0	-0	4.233584	-0	0	0	0
4.108	-73.074287	249.024857	-26.01223	0.92073	0	-0.257253	0	0	0	0	0	0	-0	4.281443	-0	0	0	0
4.109	-79.737053	277.801727	-27.268463	0.92134	0	-0.257852	0	0	0	0	0	0	-0	4.322035	-0	0	0	0
4.11	-86.65876	308.772766	-28.487873	0.921805	0	-0.258407	0	0	0	0	0	0	-0	4.35508	-0	0	0	0
4.111	-93.79615	341.924042	-29.659666	0.922121	0	-0.258932	0	0	0	0	0	0	-0	4.380327	-0	0	0	0
4.112	-101.098656	377.21344	-30.772764	0.922282	0	-0.259439	0	0	0	0	0	0	-0	4.397564	-0	0	0	0
4.113	-108.509087	414.569	-31.815891	0.922284	0	-0.259937	0	0	0	0	0	0	-0	4.406622	-0	0	0	0
4.114	-115.964622	453.888367	-32.777679	0.922122	0	-0.260433	0	0	0	0	0	0	-0	4.407372	-0	0	0	0
4.115	-123.398178	495.038513	-33.646778	0.9217919999999999	0	-0.260934	0	0	0	0	0	0	-0	4.399734	-0	0	0	0
4.116	-130.740021	537.856812	-34.411976	0.9212900000000001	0	-0.261443	0	0	0	0	0	0	-0	4.383677	-0	0	0	0
4.117	-137.919693	582.15271	-35.062344	0.920615	0	-0.261964	0	0	0	0	0	0	-0	4.359218	-0	0	0	0
4.118	-144.868225	627.710571	-35.587387	0.919764	0	-0.262499	0	0	0	0	0	0	-0	4.326433	-0	0	0	0
4.119	-151.520462	674.293091	-35.9772	0.918737	0	-0.26305	0	0	0	0	0	0	-0	4.285448	-0	0	0	0
4.12	-157.817551	721.645874	-36.222641	0.917536	0	-0.263618	0	0	0	0	0	0	-0	4.236448	-0	0	0	0
4.121	-163.709396	769.502075	-36.315498	0.916162	0	-0.264201	0	0	0	0	0	0	-0	4.179676	-0	0	0	0
4.122	-169.157013	817.588135	-36.248676	0.914619	0	-0.264799	0	0	0	0	0	0	-0	4.115429	-0	0	0	0
4.123	-174.134674	865.629395	-36.016361	0.9129119999999999	0	-0.26541	0	0	0	0	0	0	-0	4.044067	-0	0	0	0
4.124	-178.631638	913.355591	-35.614216	0.911046	0	-0.266033	0	0	0	0	0	0	-0	3.966004	-0	0	0	0
4.125	-182.653366	960.506531	-35.039516	0.909031	0	-0.266665	0	0	0	0	0	0	-0	3.881713	-0	0	0	0
4.126	-186.222183	1006.837036	-34.29134	0.906874	0	-0.267304	0	0	0	0	0	0	-0	3.791721	-0	0	0	0
4.127	-189.377136	1052.121338	-33.370667	0.904586	0	-0.267945	0	0	0	0	0	0	-0	3.696609	-0	0	0	0
4.128	-192.173126	1096.15686	-32.280537	0.902178	0	-0.268586	0	0	0	0	0	0	-0	3.597011	-0	0	0	0
4.129	-194.679245	1138.766968	-31.026098	0.899664	0	-0.269223	0	0	0	0	0	0	-0	3.49361	-0	0	0	0
4.13	-196.976349	1179.803101	-29.61471	0.897057	0	-0.269852	0	0	0	0	0	0	-0	3.387133	-0	0	0	0
4.131	-199.153915	1219.145508	-28.05595	0.894371	0	-0.270469	0	0	0	0	0	0	-0	3.278351	-0	0	0	0
